<?xml version="1.0" encoding="utf-8"?>
<!-- Generator: Adobe Illustrator 21.0.0, SVG Export Plug-In . SVG Version: 6.00 Build 0)  -->
<svg version="1.1" id="Layer_1" xmlns="http://www.w3.org/2000/svg" xmlns:xlink="http://www.w3.org/1999/xlink" x="0px" y="0px"
	 viewBox="0 0 512 512" style="enable-background:new 0 0 512 512;" xml:space="preserve">
<path d="M433.1,117.8c-5.6-13.1-14.8-24.3-26.5-32.2c-5.8-3.9-12.3-7.1-19.2-9.2c-6.9-2.1-14.2-3.3-21.7-3.3c-10,0-19.7,2-28.5,5.8
	c-13.1,5.6-24.3,14.8-32.2,26.5c-3.9,5.8-7.1,12.3-9.2,19.2c-2.1,6.9-3.3,14.2-3.3,21.7c0,10,2,19.7,5.8,28.5
	c5.6,13.1,14.8,24.3,26.5,32.2c5.8,3.9,12.3,7.1,19.2,9.2c0.8,0.2,1.5,0.4,2.3,0.7c-0.3,1.8-0.6,3.5-0.9,5.1
	c-1.2,5.6-2.9,10.4-5,14.6c-1.9,3.9-4.2,7.4-6.8,10.5c-2.4,2.9-5.2,5.6-8.3,8.1c-5.8,4.6-12.8,8.6-20.9,12c-7.1,3-15,5.5-23.4,7.8
	c-14.7,3.9-31,7-47.4,10.5c-12.3,2.6-24.6,5.5-36.5,9.5c-8.9,3-17.6,6.6-25.8,11.3c-2.3,1.3-4.5,2.7-6.7,4.2V144.1
	c3.5-0.9,6.9-2.1,10.2-3.5c13.1-5.6,24.3-14.8,32.2-26.5c3.9-5.8,7.1-12.3,9.2-19.2c2.1-6.9,3.3-14.2,3.3-21.7c0-10-2-19.7-5.8-28.5
	c-5.6-13.1-14.8-24.3-26.5-32.2c-5.8-3.9-12.3-7.1-19.2-9.2C161.1,1.1,153.8,0,146.3,0l0,0l0,0h0l0,0c-10,0-19.7,2-28.5,5.8
	c-13.1,5.6-24.3,14.8-32.2,26.5c-3.9,5.8-7.1,12.3-9.2,19.2c-2.1,6.9-3.3,14.2-3.3,21.7c0,10,2,19.7,5.8,28.5
	c5.6,13.1,14.8,24.3,26.5,32.2c5.8,3.9,12.3,7.1,19.2,9.2c1.1,0.3,2.3,0.6,3.4,0.9v224c-3.5,0.9-6.9,2.1-10.2,3.5
	c-13.1,5.6-24.3,14.8-32.2,26.5c-3.9,5.8-7.1,12.3-9.2,19.2c-2.1,6.9-3.3,14.2-3.3,21.7c0,10,2,19.7,5.8,28.5
	c5.6,13.1,14.8,24.3,26.5,32.2c5.8,3.9,12.3,7.1,19.2,9.2c6.9,2.1,14.2,3.3,21.7,3.3c10,0,19.7-2,28.5-5.8
	c13.1-5.6,24.3-14.8,32.2-26.5c3.9-5.8,7.1-12.3,9.2-19.2c2.1-6.9,3.3-14.2,3.3-21.7c0-10-2-19.7-5.8-28.5
	c-5.6-13.1-14.8-24.3-26.5-32.2c-5.8-3.9-12.3-7.1-19.2-9.2c-0.6-0.2-1.3-0.4-1.9-0.6c0.1-0.5,0.2-1,0.3-1.4
	c1.1-4.5,2.7-8.2,4.5-11.5c1.8-3.1,3.8-5.8,6.3-8.3c2.3-2.4,5-4.6,8-6.6c5.7-3.9,12.9-7.2,21.2-10.1c7.2-2.5,15.3-4.7,23.9-6.8
	c15-3.6,31.6-6.5,48.2-10.4c12.5-2.9,25-6.4,37.1-11.2c9.1-3.6,17.9-8,26.1-13.6c6.2-4.2,12-9.1,17.2-14.8
	c7.8-8.6,14.2-19.1,18.5-31.2c2.7-7.7,4.6-16,5.5-25.1c3.9-0.9,7.6-2.2,11.3-3.7c13.1-5.6,24.3-14.8,32.2-26.5
	c3.9-5.8,7.1-12.3,9.2-19.2c2.1-6.9,3.3-14.2,3.3-21.7C438.9,136.3,436.9,126.6,433.1,117.8z M115.8,93.6c-2-2.9-3.5-6.1-4.6-9.6
	c-1.1-3.4-1.6-7.1-1.6-10.9c0-5.1,1-9.9,2.9-14.2c2.8-6.5,7.4-12.2,13.3-16.1c2.9-2,6.1-3.5,9.6-4.6c3.4-1.1,7.1-1.6,10.9-1.6
	c5.1,0,9.9,1,14.2,2.9c6.5,2.8,12.2,7.4,16.1,13.3c2,2.9,3.5,6.1,4.6,9.6c1.1,3.4,1.6,7.1,1.6,10.9c0,5.1-1,9.9-2.9,14.2
	c-2.8,6.5-7.4,12.2-13.3,16.1c-2.9,2-6.1,3.5-9.6,4.6c-3,1-6.3,1.5-9.6,1.6c-0.4,0-0.7-0.1-1.1-0.1c-0.5,0-0.9,0-1.4,0.1
	c-4.7-0.1-9-1.1-13-2.9C125.4,104.1,119.7,99.5,115.8,93.6z M176.6,418.5c2,2.9,3.5,6.1,4.6,9.6c1.1,3.4,1.6,7.1,1.6,10.9
	c0,5.1-1,9.9-2.9,14.2c-2.8,6.5-7.4,12.2-13.3,16.1c-2.9,2-6.1,3.5-9.6,4.6c-3.4,1.1-7.1,1.6-10.9,1.6c-5.1,0-9.9-1-14.2-2.9
	c-6.5-2.8-12.2-7.4-16.1-13.3c-2-2.9-3.5-6.1-4.6-9.6c-1.1-3.4-1.6-7.1-1.6-10.9c0-5.1,1-9.9,2.9-14.2c2.8-6.5,7.4-12.2,13.3-16.1
	c2.9-2,6.1-3.5,9.6-4.6c3-1,6.3-1.5,9.7-1.6c0.4,0,0.8,0.1,1.1,0.1c0.5,0,0.9,0,1.4-0.1c4.6,0.2,9,1.1,12.9,2.9
	C167,408,172.7,412.6,176.6,418.5z M399.3,160.6c-2.8,6.5-7.4,12.2-13.3,16.1c-2.9,2-6.1,3.5-9.6,4.6c-3.4,1.1-7.1,1.6-10.9,1.6
	c0,0,0,0,0,0s0,0,0,0c-5.1,0-9.9-1-14.2-2.9c-6.5-2.8-12.2-7.4-16.1-13.3c-2-2.9-3.5-6.1-4.6-9.6c-1.1-3.4-1.6-7.1-1.6-10.9
	c0-5.1,1-9.9,2.9-14.2c2.8-6.5,7.4-12.2,13.3-16.1c2.9-2,6.1-3.5,9.6-4.6c3.4-1.1,7.1-1.6,10.9-1.6c5.1,0,9.9,1,14.2,2.9
	c6.5,2.8,12.2,7.4,16.1,13.3c2,2.9,3.5,6.1,4.6,9.6c1.1,3.4,1.6,7.1,1.6,10.9C402.2,151.5,401.2,156.3,399.3,160.6z"/>
</svg>
